<svg width="32" height="34" viewBox="0 0 32 34" fill="none" xmlns="http://www.w3.org/2000/svg">
<path d="M12.6799 13.81C11.3425 13.81 10.0351 13.4133 8.92323 12.67C7.81133 11.9268 6.94489 10.8704 6.43354 9.63461C5.92219 8.3988 5.7889 7.03907 6.05055 5.72749C6.3122 4.4159 6.95702 3.21141 7.90342 2.2664C8.84983 1.3214 10.0553 0.678361 11.3672 0.418656C12.6792 0.15895 14.0387 0.294248 15.2738 0.80743C16.5088 1.32061 17.5639 2.18861 18.3055 3.30161C19.0471 4.4146 19.4419 5.72256 19.4399 7.05998C19.4346 8.8503 18.7204 10.5656 17.4535 11.8306C16.1866 13.0957 14.4702 13.8073 12.6799 13.81ZM12.6799 2.29998C11.7385 2.29998 10.8182 2.57915 10.0354 3.10219C9.25262 3.62522 8.64252 4.36863 8.28225 5.23841C7.92198 6.10818 7.82771 7.06526 8.01138 7.98861C8.19505 8.91196 8.64839 9.76011 9.31409 10.4258C9.97979 11.0915 10.8279 11.5449 11.7513 11.7285C12.6746 11.9122 13.6317 11.8179 14.5015 11.4576C15.3713 11.0974 16.1147 10.4873 16.6377 9.7045C17.1607 8.92172 17.4399 8.00142 17.4399 7.05998C17.4399 5.79755 16.9384 4.58683 16.0457 3.69415C15.1531 2.80148 13.9423 2.29998 12.6799 2.29998Z" fill="#A259FF"/>
<path d="M14.42 31.0506C14.2014 30.832 14.0329 30.5686 13.9258 30.2786C13.8188 29.9886 13.7759 29.6788 13.8 29.3706H2V23.5906C3.4179 22.0777 5.13771 20.8793 7.04809 20.0731C8.95847 19.2669 11.0169 18.8709 13.09 18.9106H13.81C13.7641 18.5753 13.7962 18.234 13.9037 17.9131C14.0112 17.5923 14.1913 17.3005 14.43 17.0606L14.55 16.9506C14.08 16.9506 13.55 16.8906 13.09 16.8906C10.6504 16.8327 8.22842 17.3176 5.99917 18.3103C3.76993 19.303 1.78913 20.7787 0.2 22.6306C0.0701779 22.8037 0 23.0143 0 23.2306V29.3706C0 29.9011 0.210714 30.4098 0.585786 30.7848C0.960859 31.1599 1.46957 31.3706 2 31.3706H14.7L14.42 31.0506Z" fill="#A259FF"/>
<path d="M31.6803 22.6906L29.6803 22.0806C29.5373 21.5914 29.3429 21.1188 29.1003 20.6706L30.1003 18.8106C30.1328 18.7362 30.1406 18.6533 30.1226 18.5741C30.1046 18.4949 30.0618 18.4236 30.0003 18.3706L28.5503 16.9206C28.4954 16.8612 28.4222 16.822 28.3424 16.8093C28.2626 16.7966 28.1808 16.8112 28.1103 16.8506L26.2703 17.8506C25.8172 17.5959 25.3377 17.3913 24.8403 17.2406L24.2303 15.2406C24.2044 15.167 24.1553 15.1037 24.0903 15.0605C24.0254 15.0172 23.9482 14.9962 23.8703 15.0006H21.8203C21.7415 14.9997 21.6646 15.0246 21.6014 15.0716C21.5382 15.1185 21.4921 15.1849 21.4703 15.2606L20.8603 17.2606C20.3594 17.4063 19.8764 17.6075 19.4203 17.8606L17.6003 16.8606C17.5312 16.8219 17.4511 16.8078 17.373 16.8205C17.295 16.8332 17.2235 16.872 17.1703 16.9306L15.6903 18.3706C15.6354 18.4284 15.6001 18.5019 15.5893 18.5809C15.5785 18.6599 15.5929 18.7402 15.6303 18.8106L16.6303 20.6306C16.3658 21.0813 16.1544 21.5612 16.0003 22.0606L14.0003 22.6606C13.9246 22.6824 13.8582 22.7285 13.8112 22.7917C13.7643 22.855 13.7393 22.9318 13.7403 23.0106V25.0606C13.7462 25.1328 13.7744 25.2014 13.8209 25.257C13.8675 25.3125 13.9302 25.3522 14.0003 25.3706L16.0003 25.9806C16.1481 26.4711 16.3493 26.944 16.6003 27.3906L15.6003 29.3006C15.5621 29.369 15.5473 29.448 15.5581 29.5256C15.569 29.6032 15.6048 29.6752 15.6603 29.7306L17.1103 31.1806C17.1669 31.2371 17.2399 31.2743 17.3189 31.2868C17.3979 31.2994 17.4789 31.2867 17.5503 31.2506L19.4203 30.2506C19.8653 30.4899 20.3346 30.681 20.8203 30.8206L21.4203 32.8206C21.4449 32.8946 21.4916 32.9593 21.5543 33.0058C21.6169 33.0523 21.6923 33.0784 21.7703 33.0806H23.8203C23.8986 33.0799 23.9747 33.0543 24.0376 33.0076C24.1005 32.9609 24.147 32.8954 24.1703 32.8206L24.7803 30.7706C25.2595 30.6309 25.7222 30.4398 26.1603 30.2006L28.0503 31.2006C28.1197 31.2375 28.1994 31.2506 28.277 31.238C28.3547 31.2254 28.4261 31.1876 28.4803 31.1306L30.0003 29.7706C30.0411 29.7119 30.063 29.6421 30.063 29.5706C30.063 29.4991 30.0411 29.4293 30.0003 29.3706L29.0003 27.4906C29.243 27.0495 29.4375 26.5834 29.5803 26.1006L31.5803 25.4906C31.6559 25.4687 31.7223 25.4226 31.7693 25.3594C31.8162 25.2962 31.8412 25.2193 31.8403 25.1406V23.0406C31.8494 22.9731 31.8393 22.9044 31.811 22.8424C31.7826 22.7804 31.7373 22.7278 31.6803 22.6906ZM22.8503 27.3706C22.1888 27.3726 21.5417 27.1781 20.9909 26.8119C20.4401 26.4456 20.0105 25.9241 19.7564 25.3134C19.5024 24.7027 19.4354 24.0303 19.564 23.3814C19.6925 22.7326 20.0108 22.1366 20.4785 21.6689C20.9462 21.2011 21.5423 20.8828 22.1911 20.7543C22.8399 20.6257 23.5123 20.6927 24.123 20.9467C24.7338 21.2008 25.2553 21.6304 25.6215 22.1812C25.9878 22.732 26.1822 23.3791 26.1803 24.0406C26.1776 24.9229 25.8259 25.7684 25.202 26.3923C24.5781 27.0163 23.7326 27.3679 22.8503 27.3706Z" fill="#A259FF"/>
</svg>
